<svg width="75" height="34" viewBox="0 0 75 34" fill="none" xmlns="http://www.w3.org/2000/svg">
<rect width="75" height="34" rx="12" fill="#F4F5F6"/>
<path d="M24 7L30 13V25C30 25.5304 29.7893 26.0391 29.4142 26.4142C29.0391 26.7893 28.5304 27 28 27H16C15.4696 27 14.9609 26.7893 14.5858 26.4142C14.2107 26.0391 14 25.5304 14 25V9C14 8.46957 14.2107 7.96086 14.5858 7.58579C14.9609 7.21071 15.4696 7 16 7H24ZM28 25V14H23V9H16V25H28ZM20.92 17.31C20.68 16.54 20.15 14.08 21.55 14.04C22.95 14 22.03 17.16 22.03 17.16C22.42 18.65 24.05 19.72 24.05 19.72C24.55 19.57 27.4 19.24 27 20.72C26.57 22.2 23.5 20.81 23.5 20.81C21.55 20.95 20.09 21.47 20.09 21.47C18.96 23.58 17.64 24.5 17.1 23.61C16.43 22.5 19.23 21.07 19.23 21.07C20.68 18.72 20.9 17.35 20.92 17.31ZM21.57 18.15C21.17 19.45 20.37 20.84 20.37 20.84C21.22 20.5 23.08 20.11 23.08 20.11C21.94 19.11 21.59 18.16 21.57 18.15ZM24.71 20.32C24.71 20.32 26.46 20.97 26.5 20.71C26.57 20.44 25.17 20.2 24.71 20.32ZM19.05 21.81C18.28 22.11 17.54 23.39 17.72 23.39C17.9 23.4 18.63 22.79 19.05 21.81ZM21.57 16.26C21.57 16.21 22 14.58 21.57 14.53C21.27 14.5 21.56 16.22 21.57 16.26Z" fill="#181A1B"/>
<path d="M40.0387 22V12.5455H43.4087C44.1443 12.5455 44.7537 12.6793 45.2369 12.9471C45.7201 13.2148 46.0817 13.5811 46.3217 14.0458C46.5618 14.5075 46.6818 15.0276 46.6818 15.6062C46.6818 16.1879 46.5603 16.7111 46.3171 17.1758C46.0771 17.6374 45.7139 18.0037 45.2276 18.2745C44.7444 18.5423 44.1366 18.6761 43.4041 18.6761H41.0866V17.4666H43.2749C43.7396 17.4666 44.1166 17.3866 44.4059 17.2266C44.6952 17.0634 44.9076 16.8419 45.043 16.5618C45.1784 16.2817 45.2461 15.9632 45.2461 15.6062C45.2461 15.2492 45.1784 14.9322 45.043 14.6552C44.9076 14.3782 44.6937 14.1612 44.4013 14.0043C44.112 13.8473 43.7304 13.7688 43.2564 13.7688H41.4652V22H40.0387ZM51.4149 22H48.3541V12.5455H51.5118C52.4382 12.5455 53.2338 12.7347 53.8985 13.1133C54.5633 13.4888 55.0727 14.0289 55.4266 14.7337C55.7836 15.4354 55.9621 16.2771 55.9621 17.2589C55.9621 18.2437 55.782 19.0901 55.422 19.7979C55.065 20.5058 54.5479 21.0505 53.8708 21.4322C53.1937 21.8107 52.3751 22 51.4149 22ZM49.7806 20.7536H51.3364C52.0566 20.7536 52.6552 20.6181 53.1322 20.3473C53.6092 20.0734 53.9662 19.6779 54.2032 19.1609C54.4402 18.6407 54.5587 18.0067 54.5587 17.2589C54.5587 16.5172 54.4402 15.8878 54.2032 15.3707C53.9693 14.8537 53.62 14.4613 53.1553 14.1935C52.6905 13.9258 52.1135 13.7919 51.4241 13.7919H49.7806V20.7536ZM57.736 22V12.5455H63.5989V13.7734H59.1625V16.6541H63.1788V17.8775H59.1625V22H57.736Z" fill="#181A1B"/>
</svg>
