<svg width="56" height="56" viewBox="0 0 56 56" fill="none" xmlns="http://www.w3.org/2000/svg">
<g id="Frame 9">
<path id="Vector" fill-rule="evenodd" clip-rule="evenodd" d="M8.02784 20.3627C8.17529 28.637 13.1998 35.8278 20.4889 38.6852C22.2128 39.5222 26.5961 40.0145 26.5961 40.0145C34.2308 40.5075 40.5838 36.9612 44.4748 31.0506C46.4453 28.1448 47.5288 24.7467 47.6763 20.7566V20.3999L55.7049 20.4126V23.0227H55.6557C54.5722 33.9072 46.5928 43.9554 36.1022 46.9104C33.393 47.5508 30.5363 48.1421 28.9605 50.6041C28.3693 51.491 28.0736 52.6237 27.778 53.6581C27.4332 50.8506 25.2661 48.4862 22.6559 47.6491C12.9533 45.9743 4.48159 38.4879 1.47674 29.2782C0.935341 27.7508 0.541396 26.1259 0.344052 24.4019C-0.0990435 23.2685 0.14745 21.6927 0 20.3627H8.02784Z" fill="#0082C3"/>
<path id="Vector_2" fill-rule="evenodd" clip-rule="evenodd" d="M26.5337 29.2335C22.1496 28.6474 18.768 24.8919 18.768 20.3478C18.768 15.8021 22.1519 12.0459 26.5374 11.4613L26.5396 11.4948V3.3225L26.5262 3.01941C17.6681 3.73506 10.7021 11.1515 10.7021 20.1944C10.7021 29.2372 17.6666 36.6529 26.5255 37.3708L26.5396 36.9672V29.4636L26.5337 29.2335Z" fill="#959CA0"/>
<path id="Vector_3" fill-rule="evenodd" clip-rule="evenodd" d="M29.1231 37.3864C38.0855 36.7758 45.1669 29.3117 45.1669 20.1943C45.1669 11.0658 38.0684 3.59501 29.0903 3L29.1201 11.4948L29.1075 11.4866C33.4059 12.1479 36.7004 15.8632 36.7004 20.3477C36.7004 24.8211 33.4237 28.529 29.1402 29.2037L29.1201 29.2245V37.2539L29.1231 37.3864Z" fill="#959CA0"/>
</g>
</svg>
