<svg width="82" height="34" viewBox="0 0 82 34" fill="none" xmlns="http://www.w3.org/2000/svg">
<rect width="82" height="34" rx="12" fill="#F4F5F6"/>
<path d="M24 7H16C14.89 7 14 7.9 14 9V25C14 26.11 14.89 27 16 27H28C29.11 27 30 26.11 30 25V13L24 7ZM28 25H16V9H23V14H28V25ZM27.35 15L25.25 24H23.85L22.05 17.21L20.25 24H18.85L16.65 15H18.15L19.55 21.81L21.35 15H22.65L24.45 21.81L25.85 15H27.35Z" fill="#181A1B"/>
<path d="M41.8899 22L39.2678 12.5455H40.7681L42.6101 19.8672H42.6978L44.6136 12.5455H46.1001L48.016 19.8718H48.1037L49.9411 12.5455H51.446L48.8192 22H47.3835L45.3938 14.9183H45.32L43.3303 22H41.8899ZM54.9245 22.1431C54.2598 22.1431 53.6796 21.9908 53.1841 21.6861C52.6886 21.3814 52.3039 20.9551 52.03 20.4073C51.7561 19.8595 51.6191 19.2193 51.6191 18.4869C51.6191 17.7513 51.7561 17.1081 52.03 16.5572C52.3039 16.0063 52.6886 15.5785 53.1841 15.2738C53.6796 14.9691 54.2598 14.8168 54.9245 14.8168C55.5893 14.8168 56.1694 14.9691 56.665 15.2738C57.1605 15.5785 57.5452 16.0063 57.8191 16.5572C58.093 17.1081 58.2299 17.7513 58.2299 18.4869C58.2299 19.2193 58.093 19.8595 57.8191 20.4073C57.5452 20.9551 57.1605 21.3814 56.665 21.6861C56.1694 21.9908 55.5893 22.1431 54.9245 22.1431ZM54.9292 20.9844C55.36 20.9844 55.717 20.8705 56.0002 20.6428C56.2833 20.415 56.4926 20.1119 56.628 19.7333C56.7665 19.3548 56.8358 18.9377 56.8358 18.4822C56.8358 18.0298 56.7665 17.6143 56.628 17.2358C56.4926 16.8542 56.2833 16.5479 56.0002 16.3171C55.717 16.0863 55.36 15.9709 54.9292 15.9709C54.4952 15.9709 54.1351 16.0863 53.8489 16.3171C53.5658 16.5479 53.3549 16.8542 53.2164 17.2358C53.081 17.6143 53.0133 18.0298 53.0133 18.4822C53.0133 18.9377 53.081 19.3548 53.2164 19.7333C53.3549 20.1119 53.5658 20.415 53.8489 20.6428C54.1351 20.8705 54.4952 20.9844 54.9292 20.9844ZM59.7707 22V14.9091H61.1048V16.0355H61.1787C61.308 15.6539 61.5357 15.3538 61.8619 15.1353C62.1913 14.9137 62.5637 14.8029 62.9791 14.8029C63.0653 14.8029 63.1669 14.806 63.2838 14.8121C63.4039 14.8183 63.4977 14.826 63.5654 14.8352V16.1555C63.51 16.1402 63.4115 16.1232 63.27 16.1048C63.1284 16.0832 62.9868 16.0724 62.8453 16.0724C62.519 16.0724 62.2282 16.1417 61.9727 16.2802C61.7204 16.4156 61.5203 16.6049 61.3726 16.848C61.2249 17.0881 61.151 17.362 61.151 17.6697V22H59.7707ZM67.1605 22.1385C66.5881 22.1385 66.0772 21.9923 65.6278 21.6999C65.1816 21.4045 64.8307 20.9844 64.5753 20.4396C64.3229 19.8918 64.1967 19.2347 64.1967 18.4684C64.1967 17.7021 64.3245 17.0465 64.5799 16.5018C64.8384 15.957 65.1924 15.54 65.6417 15.2507C66.091 14.9614 66.6004 14.8168 67.1697 14.8168C67.6098 14.8168 67.9638 14.8906 68.2315 15.0384C68.5024 15.183 68.7116 15.3523 68.8594 15.5462C69.0102 15.7401 69.1271 15.9109 69.2102 16.0586H69.2933V12.5455H70.6737V22H69.3256V20.8967H69.2102C69.1271 21.0475 69.0071 21.2198 68.8501 21.4137C68.6963 21.6076 68.4839 21.7769 68.2131 21.9215C67.9422 22.0662 67.5914 22.1385 67.1605 22.1385ZM67.4652 20.9613C67.8622 20.9613 68.1977 20.8567 68.4716 20.6474C68.7486 20.435 68.9579 20.1411 69.0994 19.7656C69.2441 19.3902 69.3164 18.9531 69.3164 18.4545C69.3164 17.9621 69.2456 17.5312 69.104 17.1619C68.9625 16.7926 68.7547 16.5049 68.4808 16.2987C68.2069 16.0924 67.8684 15.9893 67.4652 15.9893C67.0497 15.9893 66.7035 16.0971 66.4265 16.3125C66.1495 16.5279 65.9402 16.8219 65.7987 17.1942C65.6602 17.5666 65.5909 17.9867 65.5909 18.4545C65.5909 18.9285 65.6617 19.3548 65.8033 19.7333C65.9448 20.1119 66.1541 20.4119 66.4311 20.6335C66.7112 20.852 67.0559 20.9613 67.4652 20.9613Z" fill="#181A1B"/>
</svg>
