<svg width="87" height="34" viewBox="0 0 87 34" fill="none" xmlns="http://www.w3.org/2000/svg">
<rect width="87" height="34" rx="12" fill="#F4F5F6"/>
<path d="M31 14L31 8M31 8H25M31 8L23 16M20 10H17.8C16.1198 10 15.2798 10 14.638 10.327C14.0735 10.6146 13.6146 11.0735 13.327 11.638C13 12.2798 13 13.1198 13 14.8V21.2C13 22.8802 13 23.7202 13.327 24.362C13.6146 24.9265 14.0735 25.3854 14.638 25.673C15.2798 26 16.1198 26 17.8 26H24.2C25.8802 26 26.7202 26 27.362 25.673C27.9265 25.3854 28.3854 24.9265 28.673 24.362C29 23.7202 29 22.8802 29 21.2V19" stroke="#181A1B" stroke-width="2" stroke-linecap="round" stroke-linejoin="round"/>
<path d="M40.0387 22V12.5455H41.4652V16.6541H46.1786V12.5455H47.6097V22H46.1786V17.8775H41.4652V22H40.0387ZM49.2209 13.7734V12.5455H56.538V13.7734H53.5881V22H52.1662V13.7734H49.2209ZM58.1549 12.5455H59.8861L62.896 19.8949H63.0068L66.0168 12.5455H67.748V22H66.3907V15.1584H66.303L63.5146 21.9862H62.3882L59.5999 15.1538H59.5122V22H58.1549V12.5455ZM69.8219 22V12.5455H71.2484V20.772H75.5325V22H69.8219Z" fill="#181A1B"/>
</svg>
